<mxfile host="Electron" modified="2023-10-12T17:00:42.720Z" agent="Mozilla/5.0 (Macintosh; Intel Mac OS X 10_15_7) AppleWebKit/537.36 (KHTML, like Gecko) draw.io/22.0.2 Chrome/114.0.5735.289 Electron/25.8.4 Safari/537.36" etag="yp1no3Tp5K4NZX4K7D1G" version="22.0.2" type="device" pages="2">
  <diagram name="SubsMenu" id="dtBl9-bYXef4IN1tj8cK">
    <mxGraphModel dx="1026" dy="743" grid="1" gridSize="10" guides="1" tooltips="1" connect="1" arrows="1" fold="1" page="1" pageScale="1" pageWidth="827" pageHeight="1169" math="0" shadow="0">
      <root>
        <mxCell id="0" />
        <mxCell id="1" parent="0" />
        <mxCell id="A1l0NTsYvB6iS5HPcRy5-7" style="edgeStyle=orthogonalEdgeStyle;rounded=0;orthogonalLoop=1;jettySize=auto;html=1;exitX=0.5;exitY=0.5;exitDx=0;exitDy=15;exitPerimeter=0;entryX=0.5;entryY=0;entryDx=0;entryDy=0;endArrow=none;endFill=0;" parent="1" source="A1l0NTsYvB6iS5HPcRy5-1" target="A1l0NTsYvB6iS5HPcRy5-2" edge="1">
          <mxGeometry relative="1" as="geometry" />
        </mxCell>
        <mxCell id="A1l0NTsYvB6iS5HPcRy5-1" value="Начало" style="html=1;dashed=0;whiteSpace=wrap;shape=mxgraph.dfd.start" parent="1" vertex="1">
          <mxGeometry x="400" y="50" width="80" height="30" as="geometry" />
        </mxCell>
        <mxCell id="A1l0NTsYvB6iS5HPcRy5-15" style="edgeStyle=orthogonalEdgeStyle;shape=connector;rounded=0;orthogonalLoop=1;jettySize=auto;html=1;exitX=0.5;exitY=1;exitDx=0;exitDy=0;entryX=0.5;entryY=0;entryDx=0;entryDy=0;labelBackgroundColor=default;strokeColor=default;align=center;verticalAlign=middle;fontFamily=Helvetica;fontSize=11;fontColor=default;endArrow=none;endFill=0;" parent="1" source="A1l0NTsYvB6iS5HPcRy5-2" target="A1l0NTsYvB6iS5HPcRy5-24" edge="1">
          <mxGeometry relative="1" as="geometry">
            <mxPoint x="670" y="240" as="targetPoint" />
            <Array as="points">
              <mxPoint x="440" y="220" />
              <mxPoint x="598" y="220" />
            </Array>
          </mxGeometry>
        </mxCell>
        <mxCell id="P82y9Z4qK11ZDdidXhN--2" style="edgeStyle=orthogonalEdgeStyle;rounded=0;orthogonalLoop=1;jettySize=auto;html=1;exitX=0.5;exitY=1;exitDx=0;exitDy=0;entryX=0.5;entryY=0;entryDx=0;entryDy=0;endArrow=none;endFill=0;" parent="1" source="A1l0NTsYvB6iS5HPcRy5-2" target="P82y9Z4qK11ZDdidXhN--1" edge="1">
          <mxGeometry relative="1" as="geometry" />
        </mxCell>
        <mxCell id="A1l0NTsYvB6iS5HPcRy5-2" value="Выбор пользователя&amp;nbsp;" style="rhombus;whiteSpace=wrap;html=1;" parent="1" vertex="1">
          <mxGeometry x="380" y="120" width="120" height="80" as="geometry" />
        </mxCell>
        <mxCell id="A1l0NTsYvB6iS5HPcRy5-24" value="&amp;nbsp;Menu" style="swimlane;whiteSpace=wrap;html=1;fontFamily=Helvetica;fontSize=11;fontColor=default;" parent="1" vertex="1">
          <mxGeometry x="538" y="362" width="120" height="80" as="geometry" />
        </mxCell>
        <mxCell id="A1l0NTsYvB6iS5HPcRy5-34" value="назад в главное меню" style="text;html=1;strokeColor=none;fillColor=none;align=center;verticalAlign=middle;whiteSpace=wrap;rounded=0;fontSize=11;fontFamily=Helvetica;fontColor=default;" parent="1" vertex="1">
          <mxGeometry x="540" y="190" width="80" height="30" as="geometry" />
        </mxCell>
        <mxCell id="A1l0NTsYvB6iS5HPcRy5-35" value="Конец" style="html=1;dashed=0;whiteSpace=wrap;shape=mxgraph.dfd.start;fontFamily=Helvetica;fontSize=11;fontColor=default;" parent="1" vertex="1">
          <mxGeometry x="390" y="690" width="80" height="30" as="geometry" />
        </mxCell>
        <mxCell id="stAv4Jr3SnSkQPhiocma-6" style="edgeStyle=orthogonalEdgeStyle;shape=connector;rounded=0;orthogonalLoop=1;jettySize=auto;html=1;exitX=0.5;exitY=1;exitDx=0;exitDy=0;entryX=0.5;entryY=0;entryDx=0;entryDy=0;labelBackgroundColor=default;strokeColor=default;align=center;verticalAlign=middle;fontFamily=Helvetica;fontSize=11;fontColor=default;endArrow=none;endFill=0;" parent="1" source="stAv4Jr3SnSkQPhiocma-2" target="stAv4Jr3SnSkQPhiocma-4" edge="1">
          <mxGeometry relative="1" as="geometry" />
        </mxCell>
        <mxCell id="stAv4Jr3SnSkQPhiocma-2" value="ожидание подтверждения оплаты" style="rounded=0;whiteSpace=wrap;html=1;fontFamily=Helvetica;fontSize=11;fontColor=default;" parent="1" vertex="1">
          <mxGeometry x="370" y="460" width="120" height="80" as="geometry" />
        </mxCell>
        <mxCell id="stAv4Jr3SnSkQPhiocma-5" style="edgeStyle=orthogonalEdgeStyle;shape=connector;rounded=0;orthogonalLoop=1;jettySize=auto;html=1;exitX=0.5;exitY=1;exitDx=0;exitDy=0;entryX=0.5;entryY=0;entryDx=0;entryDy=0;labelBackgroundColor=default;strokeColor=default;align=center;verticalAlign=middle;fontFamily=Helvetica;fontSize=11;fontColor=default;endArrow=none;endFill=0;" parent="1" source="stAv4Jr3SnSkQPhiocma-3" target="stAv4Jr3SnSkQPhiocma-2" edge="1">
          <mxGeometry relative="1" as="geometry" />
        </mxCell>
        <mxCell id="stAv4Jr3SnSkQPhiocma-3" value="формирование/отправка ссылки на оплату" style="shape=process;whiteSpace=wrap;html=1;backgroundOutline=1;fontFamily=Helvetica;fontSize=11;fontColor=default;" parent="1" vertex="1">
          <mxGeometry x="370" y="360" width="120" height="80" as="geometry" />
        </mxCell>
        <mxCell id="stAv4Jr3SnSkQPhiocma-4" value="Обновление конца подписки в базе данных" style="shape=process;whiteSpace=wrap;html=1;backgroundOutline=1;fontFamily=Helvetica;fontSize=11;fontColor=default;" parent="1" vertex="1">
          <mxGeometry x="370" y="570" width="120" height="80" as="geometry" />
        </mxCell>
        <mxCell id="P82y9Z4qK11ZDdidXhN--3" style="edgeStyle=orthogonalEdgeStyle;shape=connector;rounded=0;orthogonalLoop=1;jettySize=auto;html=1;exitX=0.5;exitY=1;exitDx=0;exitDy=0;entryX=0.5;entryY=0;entryDx=0;entryDy=0;labelBackgroundColor=default;strokeColor=default;align=center;verticalAlign=middle;fontFamily=Helvetica;fontSize=11;fontColor=default;endArrow=none;endFill=0;" parent="1" source="P82y9Z4qK11ZDdidXhN--1" target="stAv4Jr3SnSkQPhiocma-3" edge="1">
          <mxGeometry relative="1" as="geometry" />
        </mxCell>
        <mxCell id="P82y9Z4qK11ZDdidXhN--1" value="получаем срок продления 1 &lt;br&gt;день/неделя&lt;br&gt;/месяц" style="shape=parallelogram;perimeter=parallelogramPerimeter;whiteSpace=wrap;html=1;fixedSize=1;" parent="1" vertex="1">
          <mxGeometry x="380" y="260" width="120" height="80" as="geometry" />
        </mxCell>
        <mxCell id="P82y9Z4qK11ZDdidXhN--4" style="edgeStyle=orthogonalEdgeStyle;shape=connector;rounded=0;orthogonalLoop=1;jettySize=auto;html=1;exitX=0.5;exitY=1;exitDx=0;exitDy=0;entryX=0.5;entryY=0.5;entryDx=0;entryDy=-15;entryPerimeter=0;labelBackgroundColor=default;strokeColor=default;align=center;verticalAlign=middle;fontFamily=Helvetica;fontSize=11;fontColor=default;endArrow=none;endFill=0;" parent="1" source="stAv4Jr3SnSkQPhiocma-4" target="A1l0NTsYvB6iS5HPcRy5-35" edge="1">
          <mxGeometry relative="1" as="geometry" />
        </mxCell>
        <mxCell id="P82y9Z4qK11ZDdidXhN--6" value="продление подписки" style="text;html=1;strokeColor=none;fillColor=none;align=center;verticalAlign=middle;whiteSpace=wrap;rounded=0;fontSize=11;fontFamily=Helvetica;fontColor=default;" parent="1" vertex="1">
          <mxGeometry x="380" y="220" width="60" height="30" as="geometry" />
        </mxCell>
        <mxCell id="P82y9Z4qK11ZDdidXhN--7" style="edgeStyle=orthogonalEdgeStyle;shape=connector;rounded=0;orthogonalLoop=1;jettySize=auto;html=1;exitX=0.5;exitY=1;exitDx=0;exitDy=0;entryX=0.5;entryY=0.5;entryDx=0;entryDy=-15;entryPerimeter=0;labelBackgroundColor=default;strokeColor=default;align=center;verticalAlign=middle;fontFamily=Helvetica;fontSize=11;fontColor=default;endArrow=none;endFill=0;" parent="1" source="A1l0NTsYvB6iS5HPcRy5-24" target="A1l0NTsYvB6iS5HPcRy5-35" edge="1">
          <mxGeometry relative="1" as="geometry">
            <Array as="points">
              <mxPoint x="598" y="667" />
              <mxPoint x="430" y="667" />
            </Array>
          </mxGeometry>
        </mxCell>
      </root>
    </mxGraphModel>
  </diagram>
  <diagram id="-kuK0kkLY9910-5ojZjQ" name="SubsMenu_N_SH">
    <mxGraphModel dx="1026" dy="743" grid="1" gridSize="10" guides="1" tooltips="1" connect="1" arrows="1" fold="1" page="1" pageScale="1" pageWidth="827" pageHeight="1169" math="0" shadow="0">
      <root>
        <mxCell id="0" />
        <mxCell id="1" parent="0" />
        <mxCell id="1odV4Y8UNWq3L5S9NhGZ-2" value="Назад в&amp;nbsp;&lt;br&gt;главное&lt;br&gt;меню" style="rounded=0;whiteSpace=wrap;html=1;fontFamily=Helvetica;fontSize=11;fontColor=default;" vertex="1" parent="1">
          <mxGeometry x="240" y="120" width="100" height="70" as="geometry" />
        </mxCell>
        <mxCell id="1odV4Y8UNWq3L5S9NhGZ-3" value="&lt;br&gt;&lt;br&gt;1 день" style="rounded=0;whiteSpace=wrap;html=1;" vertex="1" parent="1">
          <mxGeometry x="340" y="120" width="100" height="70" as="geometry" />
        </mxCell>
        <mxCell id="1odV4Y8UNWq3L5S9NhGZ-4" value="&lt;br&gt;&lt;br&gt;&lt;br&gt;1 неделя" style="rounded=0;whiteSpace=wrap;html=1;" vertex="1" parent="1">
          <mxGeometry x="440" y="120" width="100" height="70" as="geometry" />
        </mxCell>
        <mxCell id="1odV4Y8UNWq3L5S9NhGZ-5" value="&lt;br&gt;&lt;br&gt;&lt;br&gt;1 месяц" style="rounded=0;whiteSpace=wrap;html=1;align=left;" vertex="1" parent="1">
          <mxGeometry x="540" y="120" width="100" height="70" as="geometry" />
        </mxCell>
        <mxCell id="1odV4Y8UNWq3L5S9NhGZ-8" value="SubsMenu" style="rounded=0;whiteSpace=wrap;html=1;" vertex="1" parent="1">
          <mxGeometry x="240" y="80" width="400" height="40" as="geometry" />
        </mxCell>
        <mxCell id="1odV4Y8UNWq3L5S9NhGZ-13" value="" style="verticalLabelPosition=bottom;verticalAlign=top;html=1;shape=mxgraph.basic.orthogonal_triangle;direction=west;" vertex="1" parent="1">
          <mxGeometry x="240" y="120" width="400" height="60" as="geometry" />
        </mxCell>
        <mxCell id="1odV4Y8UNWq3L5S9NhGZ-17" value="Выбор&lt;br&gt;пользователя" style="text;html=1;strokeColor=none;fillColor=none;align=center;verticalAlign=middle;whiteSpace=wrap;rounded=0;" vertex="1" parent="1">
          <mxGeometry x="530" y="120" width="60" height="30" as="geometry" />
        </mxCell>
        <mxCell id="1odV4Y8UNWq3L5S9NhGZ-18" value="Вывод клавиатуры главного меню" style="rounded=0;whiteSpace=wrap;html=1;fontFamily=Helvetica;fontSize=11;fontColor=default;" vertex="1" parent="1">
          <mxGeometry x="240" y="190" width="100" height="210" as="geometry" />
        </mxCell>
        <mxCell id="ysCIVP2Ntn9Imq6C6O-R-3" value="формирование/отправка ссылки на оплату" style="rounded=0;whiteSpace=wrap;html=1;" vertex="1" parent="1">
          <mxGeometry x="340" y="190" width="300" height="70" as="geometry" />
        </mxCell>
        <mxCell id="ysCIVP2Ntn9Imq6C6O-R-6" value="ожидание подтверждения оплаты" style="rounded=0;whiteSpace=wrap;html=1;" vertex="1" parent="1">
          <mxGeometry x="340" y="260" width="300" height="70" as="geometry" />
        </mxCell>
        <mxCell id="aXqyAqkwJUAqpk288I7k-1" value="Обновление конца подписки в базе данных" style="rounded=0;whiteSpace=wrap;html=1;" vertex="1" parent="1">
          <mxGeometry x="340" y="330" width="300" height="70" as="geometry" />
        </mxCell>
        <mxCell id="aXqyAqkwJUAqpk288I7k-2" style="edgeStyle=orthogonalEdgeStyle;shape=connector;rounded=0;orthogonalLoop=1;jettySize=auto;html=1;exitX=0.5;exitY=1;exitDx=0;exitDy=0;labelBackgroundColor=default;strokeColor=default;align=center;verticalAlign=middle;fontFamily=Helvetica;fontSize=11;fontColor=default;endArrow=none;endFill=0;" edge="1" parent="1" source="1odV4Y8UNWq3L5S9NhGZ-18" target="1odV4Y8UNWq3L5S9NhGZ-18">
          <mxGeometry relative="1" as="geometry" />
        </mxCell>
      </root>
    </mxGraphModel>
  </diagram>
</mxfile>
